<svg xmlns="http://www.w3.org/2000/svg"
viewBox="0 0 201.2 268.5">
<defs>
<style>
.a{fill:#3d3d3d;}
</style>
</defs>
<path class="a" d="M126.18,72.34l19.64-26,35.55,28.94-2.19-60.67L161.84,0,126.53,27.93,116.42,65.1ZM165.5,13.05l4.85,4.86V52.67l-21-13Z"/>
<polygon class="a" points="148.11 56.77 187.72 127.71 180.27 106.01 201.2 100.36 148.11 56.77"/>
<polygon class="a" points="178.36 124.33 143.53 60.14 131.14 76.28 158.51 115.72 178.36 124.33"/>
<polygon class="a" points="100.6 187.6 100.63 187.62 100.63 187.58 118.89 173.42 118.06 160.28 100.63 155.04 100.63 155.02 100.6 155.03 100.58 155.02 100.58 155.04 83.14 160.28 82.31 173.42 100.58 187.58 100.58 187.62 100.6 187.6"/>
<polygon class="a" points="144.28 107.85 136.04 94.74 124.62 113.66 144.28 107.85"/>
<polygon class="a" points="146.34 155.02 156.07 118.71 142.41 128.07 116.42 118.71 117.71 137.03 129.95 169.65 146.34 155.02"/>
<polygon class="a" points="155.46 152.99 148.11 169.65 118.89 193.01 100.74 199.71 123.02 197.45 136.47 187.62 174.87 208.63 168.11 183.53 198.02 166.28 155.46 152.99"/>
<polygon class="a" points="127.52 200.86 149.93 245.79 170.49 214.59 137.25 195.01 127.52 200.86"/>
<polygon class="a" points="109.73 264.55 144.52 250.1 132.4 224.45 109.73 264.55"/>
<polygon class="a" points="111.45 95.42 115.72 112.06 130.61 83.98 115.3 71.34 111.45 95.42"/>
<polygon class="a" points="100.62 124.33 100.58 124.33 89.69 124.33 89.41 137.34 83.96 152.78 100.6 147.11 117.25 152.78 111.79 137.34 111.51 124.33 100.62 124.33"/>
<polygon class="a" points="192.07 158.1 175.92 138.55 192.03 135.59 162.38 123.58 157.75 141.56 166.75 149.98 192.07 158.1"/>
<path class="a" d="M75,72.34l9.76-7.24L74.67,27.93,39.36,0,22,14.61,19.84,75.28,55.38,46.34ZM30.85,52.67V17.91l4.86-4.86L51.82,39.63Z"/>
<polygon class="a" points="13.48 127.71 53.09 56.77 0 100.36 20.93 106.01 13.48 127.71"/>
<polygon class="a" points="22.84 124.33 42.69 115.72 70.07 76.28 57.67 60.14 22.84 124.33"/>
<polygon class="a" points="56.92 107.85 76.59 113.66 65.16 94.74 56.92 107.85"/>
<polygon class="a" points="71.25 169.65 83.49 137.03 84.78 118.71 58.8 128.07 45.13 118.71 54.87 155.02 71.25 169.65"/>
<polygon class="a" points="64.73 187.62 78.18 197.45 100.46 199.71 82.31 193.01 53.09 169.65 45.74 152.99 3.18 166.28 33.09 183.53 26.34 208.63 64.73 187.62"/>
<polygon class="a" points="63.95 195.01 30.71 214.59 51.28 245.79 73.69 201.86 63.95 195.01"/>
<polygon class="a" points="100.62 268.46 128.56 217.91 121.34 203.67 105.33 205.07 100.6 268.18 95.87 205.07 79.86 203.67 72.64 217.91 100.58 268.46 100.6 268.5 100.62 268.46"/>
<polygon class="a" points="56.68 250.1 91.47 264.55 68.8 224.45 56.68 250.1"/>
<polygon class="a" points="70.59 83.98 85.48 112.06 89.76 95.42 85.9 71.34 70.59 83.98"/>
<polygon class="a" points="100.6 62.37 110.45 64.25 119.97 26.55 116.1 25.32 100.62 25.3 100.62 25.3 100.6 25.3 100.58 25.3 100.58 25.3 85.11 25.32 81.24 26.55 90.76 64.25 100.6 62.37"/>
<polygon class="a" points="100.58 118.71 100.63 118.71 110.94 118.71 105.76 95.42 109.73 69.93 100.62 67.65 100.62 67.64 100.6 67.64 100.58 67.64 100.58 67.65 91.47 69.93 95.45 95.42 90.27 118.71 100.58 118.71"/>
<polygon class="a" points="34.45 149.98 43.46 141.56 38.82 123.58 9.18 135.59 25.28 138.55 9.13 158.1 34.45 149.98"/>
</svg>